<svg width="247" height="196" viewBox="0 0 247 196" fill="none" xmlns="http://www.w3.org/2000/svg">
<path d="M136.531 47.2179C129.615 47.6708 110.389 62.1418 95.9208 86.2078C90.1079 95.8768 94.3465 103.789 100.509 103.32C118.573 101.944 127.699 84.3078 129.409 77.8012C130.598 73.2807 129.447 65.7532 125.802 61.145C122.156 56.5368 115.287 54.9398 110.006 56.1704C104.725 57.401 101.24 61.5076 98.6893 66.0437C96.1388 70.5797 94.6285 75.4208 95.307 80.7011C95.9854 85.9813 98.8985 91.554 105.684 93.2942C122.503 97.6076 139.407 86.58 148.871 78.8413C153.175 75.3219 155.189 71.1975 155.574 67.1432C155.96 63.0889 154.329 58.8633 150.737 55.4666C142.884 48.0412 133.002 46.5692 125.262 46.0792C120.501 45.7777 114.01 46.8142 108.627 55.6876C103.243 64.561 99.1549 81.6093 98.7854 91.7044C98.4159 101.8 101.889 104.425 106.255 104.941C110.621 105.458 115.775 103.786 119.25 101.575C125.233 97.7689 127.743 88.1214 128.598 76.3974C129.036 70.3945 124.367 64.4515 119.297 62.9056C114.227 61.3597 107.59 64.4338 102.796 68.4843C98.0024 72.5348 95.2519 77.4684 95.2104 84.0161C95.1689 90.5638 97.9198 98.576 103.234 103.446C108.548 108.316 116.342 109.801 125.141 108.506C133.941 107.21 143.511 103.089 151.813 93.8055C160.115 84.5215 166.86 70.1995 168.155 60.9477C169.45 51.6959 165.09 47.9483 158.99 45.8466C145.731 41.2788 131.034 43.9597 119.801 47.1638C114.486 48.68 111.108 53.1112 109.872 61.0943C108.635 69.0774 109.938 81.2802 114.033 88.4332C118.128 95.5863 124.975 97.3198 131.07 97.7724C142.277 98.6045 160.403 85.1513 180.713 64.0303C189.285 55.1158 190.002 46.1496 180.124 40.8134C170.245 35.4771 148.64 33.0932 134.577 36.393C120.513 39.6928 114.646 48.7486 111.831 60.2132C105.828 84.6653 112.685 103.614 121.632 112.476C134.398 125.123 157.348 125.39 176.41 120.007C185.556 117.425 190.752 107.883 194.158 99.4118C197.564 90.9411 198.286 81.9742 195.193 74.3481C192.101 66.7219 185.172 60.7083 178.45 57.1754C166.279 50.7782 138.816 54.524 105.024 60.4223C83.8497 64.1181 75.6795 73.9373 71.463 81.4754C65.2602 92.5645 66.4959 108.925 70.5993 123.404C72.6162 130.521 80.1698 134.915 91.4829 135.896C102.796 136.877 119.089 133.737 129.924 129.528C140.759 125.318 145.641 120.135 150.087 110.302C154.533 100.468 158.394 86.1415 158.213 76.3069C158.032 66.4724 153.691 61.564 147.476 58.944C134.163 53.332 121.978 56.7853 114.852 60.0363C110.599 61.9764 106.073 66.4347 102.725 72.1443C99.3759 77.8539 97.6024 85.1727 105.879 93.0394C114.156 100.906 132.536 109.099 141.844 108.134C151.152 107.169 150.831 96.7976 142.585 90.085C122.288 73.5617 91.2289 78.8058 71.3063 83.8496C61.1869 86.4115 53.0536 94.9677 54.7373 98.9066C56.4211 102.845 68.681 103.439 76.5173 101.79C84.3536 100.14 87.3947 96.2299 90.451 91.1589C93.5072 86.088 96.4863 79.9748 96.7665 71.9798C97.0467 63.9848 94.5378 54.2933 90.5738 48.9965C86.6098 43.6998 81.2669 43.0916 74.7657 47.4875C68.2646 51.8835 60.7671 61.302 57.0632 68.0244C53.3594 74.7469 53.6763 78.488 61.2628 84.9069C68.8494 91.3258 83.6961 100.309 94.7753 102.49C105.854 104.67 112.716 99.7754 117.227 94.3334C125.524 84.3227 126.337 67.6174 125.475 51.4473C125.106 44.538 120.32 40.8837 113.413 39.0295C96.9583 34.6129 80.6004 41.6301 71.0381 50.3299C62.2617 58.3146 61.8088 68.8772 62.3608 76.7438C62.6882 81.4093 64.7283 87.2584 66.7739 91.1673C68.8195 95.0762 71.2222 96.8207 77.692 97.9588C84.1619 99.0968 94.6262 99.5755 102.487 96.4919C110.347 93.4083 115.287 86.748 118.196 79.7234C121.105 72.6988 121.833 65.5118 117.756 60.4831C113.68 55.4544 104.777 52.8018 91.2346 59.2515C56.5374 75.7767 40.1968 107.407 39.072 125.121C38.2465 138.122 46.9449 149.927 57.2382 160.58C64.61 168.209 74.1147 168.859 82.1652 168.702C86.2306 168.623 90.0596 166.317 93.8349 163.245C101.92 156.666 104.41 130.105 99.7942 97.2756C98.0809 85.0886 87.6377 84.4718 78.8942 85.5201C60.4639 87.7295 45.4182 98.6518 35.7205 109.396C31.2352 114.365 30.3252 120.488 34.3929 127.774C38.4605 135.059 48.2211 143.868 64.2558 146.906C80.2904 149.945 102.303 146.946 119.718 133.043C137.133 119.139 149.283 94.4207 153.032 80.4833C156.781 66.5459 151.761 64.1383 146.086 63.2837C140.412 62.429 134.235 63.2002 128.475 66.2573C116.32 72.7079 108.967 94.6336 106.327 124.188C104.988 139.178 111.619 154.337 118.089 163.883C124.559 173.429 132.703 176.95 141.668 175.586C150.633 174.222 160.171 167.867 168.108 156.641C176.045 145.416 182.092 129.512 170.614 120.805C159.136 112.098 129.951 111.069 119.098 115.793C108.245 120.517 116.61 131.026 126.565 136.689C136.519 142.353 147.81 142.853 156.229 141.529C164.648 140.206 169.852 137.043 172.554 122.192C175.256 107.341 175.299 80.8963 172.51 68.1067C169.721 55.3171 164.099 56.9836 158.649 61.2051C146.623 70.519 139.264 96.1557 134.613 127.907C132.48 142.47 135.008 154.351 138.451 163.047C141.894 171.744 147.249 177.016 153.665 174.095C160.082 171.174 167.398 159.902 169.721 149.502C172.045 139.101 169.155 129.915 163.636 124.018C158.118 118.121 150.059 115.793 143.522 114.594C132.339 112.542 110.782 121.47 83.7486 135.377C68.4715 143.236 60.9721 155.23 55.5611 166.956C53.6044 171.197 55.9166 172.958 61.3548 174.375C75.7344 178.123 89.6286 177.837 99.7949 173.397C115.865 166.379 122.607 147.904 124.813 136.085C125.726 131.197 125.606 128.46 124.735 125.513C123.864 122.565 122.09 119.465 118.407 117.777C114.725 116.09 109.188 115.91 103.794 117.443C92.7156 120.591 85.5502 131.955 81.8607 143.48C80.2523 148.505 80.9908 152.349 87.5583 159.198C94.1259 166.047 106.963 175.91 118.834 180.7C130.704 185.49 141.219 184.908 148.766 179.361C156.313 173.815 160.575 163.322 151.38 150.33C142.186 137.338 119.406 122.166 102.842 117.605C86.2782 113.044 76.6212 119.554 70.5782 126.333C64.5352 133.113 62.3987 139.965 61.2985 145.423C60.1984 150.881 60.1992 154.737 67.2163 160.891C74.2335 167.045 88.2669 175.379 97.4435 179.39C106.62 183.4 110.515 182.834 115.014 179.133C125.952 170.134 132.22 143.714 134.379 115.11C135.188 104.401 130.437 101.332 126.868 99.6108C123.298 97.8895 119.783 97.5864 124.111 101.799C128.439 106.011 140.717 114.749 136.62 128.045C132.523 141.342 111.679 158.933 91.2257 149.78C70.7725 140.627 51.3414 104.197 43.5826 91.8337C35.8237 79.4707 40.3259 92.279 49.4865 90.2936C58.6472 88.3081 72.33 71.1408 72.2342 59.9974C72.1384 48.8539 57.8494 44.2546 55.3709 40.2878C52.8925 36.321 62.6576 33.1262 60.8583 30.4808C59.059 27.8353 45.3995 25.836 38.0227 31.6272C30.646 37.4184 29.9661 51.0607 39.491 58.3991C49.0159 65.7375 68.7662 66.3587 83.1539 55.0901C97.5416 43.8215 105.968 20.6443 97.2853 11.9697C88.6024 3.29514 62.5546 9.82545 54.7237 23.1858C46.8927 36.5462 58.068 56.5388 67.1638 67.2414C76.2595 77.944 82.9371 78.7509 94.0237 71.2617C105.11 63.7725 120.404 47.9627 127.38 36.4206C134.356 24.8784 132.553 18.0829 128.56 14.2538C124.568 10.4247 118.442 9.7679 109.225 13.7407C100.008 17.7135 87.8841 26.3358 81.5687 33.0281C75.2532 39.7204 75.113 44.2215 76.1925 48.019C77.272 51.8165 79.5753 54.774 84.869 56.0399C90.1626 57.3059 98.3767 56.7908 104.466 54.2028C110.555 51.6149 114.27 46.9698 116.371 41.4031C118.471 35.8364 118.845 29.4888 116.405 25.876C113.965 22.2633 108.7 21.5775 104.082 21.6116C95.6131 21.674 85.1507 27.1037 73.0954 36.1691C61.0627 45.2175 58.9476 56.8404 59.5745 63.4139C59.9605 67.4603 62.0881 72.7156 66.5215 76.1632C70.9549 79.6108 78.0398 81.0316 85.3148 79.0591C92.5899 77.0866 99.8404 71.6778 105.384 62.1851C110.928 52.6924 114.545 39.2796 110.608 29.1719C102.379 8.04965 80.2418 6.30729 74.737 7.15905C69.5957 7.95457 65.7617 11.5913 62.7627 15.3722C59.7527 19.167 58.9617 25.0247 58.4868 33.2055C57.7861 45.2752 69.0801 61.0791 87.4179 74.7875C95.611 80.9123 104.232 81.2712 110.367 80.5224C116.503 79.7736 120.578 76.8641 122.554 71.6422C124.53 66.4202 124.282 58.9741 116.689 54.5725C109.096 50.1708 94.1644 49.0392 82.327 51.277C70.4896 53.5147 62.1988 59.1561 56.4939 65.7014C45.8064 77.9634 45.4167 100.059 50.4649 123.768C52.8853 135.136 63.7964 142.36 71.2537 146.875C78.7109 151.389 84.6275 152.259 89.3047 149.607C93.9819 146.955 97.2403 140.754 98.5534 130.359C99.8664 119.963 99.1353 105.561 86.4602 95.928C54.7443 71.8246 18.5839 80.0119 9.53775 86.576C5.16326 89.7503 3.60791 95.3673 3.95634 100.819C4.7048 112.529 30.3615 124.105 62.7025 132.875C74.7626 136.146 78.5038 134.942 83.8872 130.191C97.6687 118.03 105.187 99.2778 106.118 81.1565C106.622 71.3384 102.4 60.301 98.8934 53.7715C95.3865 47.242 91.4979 45.566 80.7088 45.7697C52.2568 46.3067 23.0084 60.6027 5.82892 77.3527C-0.453144 83.4777 -0.427766 86.1046 1.09671 91.7247C2.62119 97.3448 5.99215 106.217 14.725 113.113C23.4578 120.01 37.4503 124.662 47.4026 126.6C57.3549 128.539 62.843 127.624 69.6966 114.078C76.5502 100.532 84.603 74.3815 86.2859 61.0125C87.9688 47.6435 83.0378 47.8479 79.2513 53.0669C69.4597 66.5627 70.7789 82.6875 73.3192 90.6544C74.7898 95.2667 79.4297 99.8961 83.0101 103.118C86.5905 106.339 89.6867 107.722 97.1977 104.44C104.709 101.159 116.541 93.1714 115.806 81.4632C115.071 69.755 101.41 54.5679 90.3584 49.6921C79.3069 44.8163 71.2784 50.712 66.0251 55.9537C60.7717 61.1954 58.5368 65.6046 60.3878 76.7357C62.2388 87.8668 68.2435 105.586 78.0805 112.414C87.9175 119.242 101.405 114.642 108.972 104.185C116.54 93.7275 117.778 77.5528 114.56 66.5433C111.342 55.5338 103.629 50.1797 97.2615 47.4252C86.7176 42.8637 71.3088 47.4009 52.5096 55.3247C42.9802 59.3414 35.8711 68.1511 35.6862 80.2916C35.5013 92.4321 43.0693 108.864 49.0032 118.383C54.9371 127.902 59.0077 130.011 66.9288 131.712C74.85 133.414 86.4984 134.645 94.4264 132.802C102.354 130.96 106.209 126.007 108.47 121.348C110.731 116.688 111.283 112.473 111.47 106.81C111.657 101.148 111.462 94.1658 104.533 89.7555C97.6034 85.3452 83.9448 83.7182 74.8179 85.1477C65.6911 86.5773 61.51 91.1126 58.5201 97.1106C52.2237 109.741 52.1929 125.675 54.2093 140.894C55.2301 148.599 60.0271 155.526 66.1067 160.681C72.1864 165.835 80.3699 168.817 95.5193 158.53C137.063 130.32 154.788 102.428 156.671 108.171C160.029 118.408 174.28 124.06 184.874 128.007C189.3 129.655 192.112 129.661 195.627 127.427C213.492 116.071 213.238 92.2344 213.881 74.5074C214.021 70.631 212.715 67.4972 211.044 64.7429C207.661 59.1677 195.838 55.6653 176.95 53.703C154.56 51.3769 127.57 64.4981 104.914 80.3469C95.8458 86.6908 95.1808 93.9436 95.8152 100.342C96.4497 106.74 99.2916 113.178 102.937 117.461C106.583 121.743 110.946 123.675 118.622 124.69C126.299 125.704 137.157 125.743 150.605 112.223C185.856 76.7818 195.125 36.3317 190.154 25.6193C187.917 20.7977 178.564 23.2534 170.046 28.3645C150.388 40.1606 137.26 60.4423 128.85 74.7625C123.462 83.9358 125.024 94.4705 128.048 104.41C129.307 108.547 132.399 109.918 137.204 111.464C148.83 115.206 165.441 111.34 180.759 101.388C192.929 93.4804 193.6 80.8949 194.825 74.3694C195.474 70.9119 195.534 67.0522 193.432 66.699C186.386 65.5156 180.279 76.6843 175.751 89.6564C167.718 112.668 168.723 134.271 172.072 143.835C173.502 147.919 177.321 149.099 181.126 147.921C200.813 141.83 203.428 113.361 206.275 94.8489C207.486 86.9717 206.306 80.7648 204.601 76.8393C203.734 74.8418 200.743 74.1385 198.632 75.7507C182.076 88.3927 191.587 136.403 204.999 164.043C210.229 174.822 226.134 173.093 234.619 172.433C237.685 172.194 237.668 169.297 236.203 166.598C224.535 145.108 188.969 128.942 171.569 122.845C160.266 118.885 149.608 120.289 144.065 122.232C138.508 124.179 139.756 133.936 141.157 143.331C145.419 171.908 164.977 180.497 174.784 185.834C178.908 188.078 181.679 188.646 183.495 183.476C188.965 167.904 184.54 146.612 179.252 131.106C175.63 120.485 167.916 116.508 161.339 114.061C153.216 111.04 145.309 112.325 140.281 114.826C133.71 118.094 133.164 129.46 133.472 139.124C133.625 143.922 136.574 148.209 139.534 150.787C142.494 153.365 146.093 154.028 152.083 152.825C166.685 149.893 182.466 128.284 193.029 99.7741C197.136 88.6891 194.099 83.0282 189.166 79.8475C163.284 63.162 133.792 82.5747 124.871 89.0988C120.551 92.2579 119.239 98.0453 119.187 103.127C119.135 108.209 121.043 113.16 123.73 116.496C126.417 119.832 129.824 121.403 136.059 121.659C142.293 121.915 151.252 120.809 158.045 117.664C184.008 105.645 191.301 51.9137 194.713 24.3539C195.248 20.0303 192.56 15.6561 187.042 12.8222C173.257 5.74261 153.141 9.8383 136.671 16.0903C121.797 21.7364 117.89 36.2323 116.167 44.653C114.424 53.17 119.443 65.8741 131.336 78.8583C137.533 85.6235 150.302 85.2941 163.079 80.3684C175.855 75.4427 189.849 64.0255 197.229 51.3481C204.608 38.6706 204.949 25.0789 201.323 16.8734C195.079 2.74147 174.934 3.83127 161.765 4.65237C155.884 5.01905 151.788 6.91161 148.533 9.41948C133.447 21.0423 135.193 53.2864 137.819 68.7556C138.481 72.6559 141.878 49.7912 134.997 26.0606C131.366 13.5374 114.866 5.5583 107.092 1.97422C99.3179 -1.60986 97.553 0.854111 96.0071 5.15171C92.3747 15.2494 93.2892 29.7902 97.1397 43.7836C103.3 66.1729 130.419 66.7492 135.138 66.9167C137.523 67.0013 139.857 65.8924 141.577 63.033C145.809 55.9943 145.021 45.4151 143.653 37.4055C143.095 34.1338 140.991 32.9156 138.976 32.0541C134.829 30.2811 128.646 30.6866 122.611 33.0398C119.582 34.2205 118.968 39.238 119.035 43.68C119.175 52.935 127.299 64.3253 144.197 79.8115C169.919 103.385 203.601 113.586 224.598 118.148C232.875 119.946 236.526 119.692 239.532 118.285C242.538 116.877 244.839 114.068 245.855 110.834C246.871 107.6 246.533 104.028 243.73 101.548C240.927 99.0674 235.669 97.7869 232.215 98.2836C219.713 100.081 220.754 123.162 220.678 153.81C220.661 160.647 222.355 163.436 222.626 162.195C228.059 137.27 195.13 105.966 182.942 97.1333C180.342 95.2485 177.077 95.315 174.672 97.3036C156.576 112.264 168.454 145.649 172.443 150.229C174.203 152.25 176.808 152.205 178.962 151.168C183.802 148.838 186.119 140.282 187.57 131.612C188.184 127.944 187.927 125.672 186.265 123.409C182.348 118.075 175.986 116.664 171.53 117.142C169.124 117.4 166.56 118.575 164.861 120.226C153.385 131.378 162.211 158.492 164.919 164.313C166.029 166.701 168.697 166.653 170.02 165.745C172.889 163.776 172.434 155.255 171.92 145.758C171.692 141.532 169.527 138.738 165.678 138.475C161.83 138.211 155.851 140.623 152.148 145.136C144.464 154.498 145.876 169.036 146.318 179.591C146.618 186.787 150.583 190.823 154.529 193.595C156.591 195.043 159.23 195.861 160.994 193.257C162.757 190.652 163.682 184.417 162.184 178.964C160.686 173.511 156.737 169.03 151.779 166.221C132.723 155.423 118.92 162.545 114.958 164.784C110.907 167.074 109.889 173.738 108.655 179.649C108.098 182.316 108.18 184.4 106.754 180.896C101.729 168.55 94.2625 152.819 84.3068 143.098C77.4439 136.396 65.4916 137.025 53.9026 137.221C46.3817 137.348 41.289 139.802 37.4707 144C33.0858 148.821 35.0608 158.491 36.7359 166.568C37.5232 170.365 41.5832 172.422 46.2493 168.804C79.0685 143.357 76.5802 99.4165 75.9789 84.6463C75.7005 77.8057 71.2178 72.8015 65.286 69.0737C52.216 60.8599 38.1223 61.1419 31.3556 63.0584C25.8377 64.6212 28.0384 74.9826 29.8417 81.6304C30.7415 84.9471 34.9064 86.7777 40.3237 82.7831C45.741 78.7885 53.1272 68.5628 55.8769 60.9022C58.6266 53.2417 56.516 48.4562 50.8781 46.8633C24.8562 39.5112 15.1203 56.0158 9.88198 61.4858C7.68673 63.7781 7.95922 66.3406 10.9655 69.0645C13.9718 71.7883 20.0941 74.9157 29.0453 73.2385C37.9966 71.5613 49.5913 64.9846 57.3779 56.2797C72.3492 39.5429 72.6895 21.6735 71.9139 14.1414C71.5703 10.8053 68.9401 8.92239 67.4542 9.14449C65.9684 9.36659 65.0961 11.8699 68.197 15.924C90.3705 44.9129 137.171 38.7118 152.307 33.6835C170.198 27.7396 169.319 5.91387 169.348 4.86744C169.397 3.15274 167.794 12.689 167.338 14.5821C166.882 16.4752 167.182 13.9266 165.869 12.377C164.556 10.8273 161.62 10.3537 158.527 12.1185C151.127 16.34 146.98 29.8616 145.689 50.278C143.794 80.2589 158.336 100.145 166.743 103.832C170.365 105.42 173.27 104.871 175.857 103.004C187.259 94.774 185.913 82.4292 185.843 74.729C185.81 71.1867 183.81 68.5412 181.304 66.7653C178.798 64.9895 175.342 64.2031 172.076 64.7394C168.809 65.2757 165.837 67.1584 163.814 71.1241C159.087 80.3897 160.856 97.7697 164.927 116.138C168.171 130.777 183.158 135.946 193.034 139.262C197.591 140.793 201.563 140.909 205.254 138.463C213.988 132.676 217.293 116.007 218.863 100.8C219.472 94.8896 217.531 92.5227 215.648 91.3091C213.766 90.0955 211.446 90.0749 209.473 90.8498C194.962 96.5468 196.262 132.806 201.581 150.819C202.775 154.864 206.937 156.286 209.619 157.342C212.302 158.397 214.542 158.501 216.512 156.131C218.482 153.761 220.113 148.914 220.353 144.993C220.594 141.073 219.394 138.226 216.225 136.225C208.767 131.516 195.341 132.471 182.862 133.857C177.684 134.432 175.089 136.339 172.967 139.106C168.307 145.182 167.782 155.073 170.152 164.392C171.338 169.058 177.261 171.679 182.129 171.536C192.497 171.23 198.23 162.22 200.783 158.003C203.185 154.037 203.785 148.712 202.629 143.49C199.293 140.134 179.626 136.303 151.942 132.353C141.645 131.01 138.963 131.01 136.2 131.01" stroke="black" stroke-width="1" stroke-linecap="round"/>
</svg>
